%TF.GenerationSoftware,KiCad,Pcbnew,10.0.6*%
%TF.CreationDate,2026-09-10T22:44:12+08:00*%
%TF.ProjectId,Hackpad,4861636b-7061-4642-9e6b-696361645f70,rev?*%
%TF.SameCoordinates,Original*%
%TF.FileFunction,Copper,L1,Top*%
%TF.FilePolarity,Positive*%
%FSLAX46Y46*%
G04 Gerber Fmt 4.6, Leading zero omitted, Abs format (unit mm)*
G04 Created by KiCad (PCBNEW 10.0.6) date 2026-09-10 22:44:12*
%MOMM*%
%LPD*%
G01*
G04 APERTURE LIST*
G04 Aperture macros list*
%AMRoundRect*
0 Rectangle with rounded corners*
0 $1 Rounding radius*
0 $2 $3 $4 $5 $6 $7 $8 $9 X,Y pos of 4 corners*
0 Add a 4 corners polygon primitive as box body*
4,1,4,$2,$3,$4,$5,$6,$7,$8,$9,$2,$3,0*
0 Add four circle primitives for the rounded corners*
1,1,$1+$1,$2,$3*
1,1,$1+$1,$4,$5*
1,1,$1+$1,$6,$7*
1,1,$1+$1,$8,$9*
0 Add four rect primitives between the rounded corners*
20,1,$1+$1,$2,$3,$4,$5,0*
20,1,$1+$1,$4,$5,$6,$7,0*
20,1,$1+$1,$6,$7,$8,$9,0*
20,1,$1+$1,$8,$9,$2,$3,0*%
G04 Aperture macros list end*
%TA.AperFunction,ComponentPad*%
%ADD10RoundRect,0.170000X0.680000X-0.680000X0.680000X0.680000X-0.680000X0.680000X-0.680000X-0.680000X0*%
%TD*%
%TA.AperFunction,ComponentPad*%
%ADD11C,1.700000*%
%TD*%
%TA.AperFunction,ComponentPad*%
%ADD12R,1.800000X1.800000*%
%TD*%
%TA.AperFunction,ComponentPad*%
%ADD13C,1.800000*%
%TD*%
%TA.AperFunction,SMDPad,CuDef*%
%ADD14RoundRect,0.152400X1.063600X0.609600X-1.063600X0.609600X-1.063600X-0.609600X1.063600X-0.609600X0*%
%TD*%
%TA.AperFunction,ComponentPad*%
%ADD15C,1.524000*%
%TD*%
%TA.AperFunction,SMDPad,CuDef*%
%ADD16RoundRect,0.152400X-1.063600X-0.609600X1.063600X-0.609600X1.063600X0.609600X-1.063600X0.609600X0*%
%TD*%
%TA.AperFunction,ComponentPad*%
%ADD17R,2.000000X2.000000*%
%TD*%
%TA.AperFunction,ComponentPad*%
%ADD18C,2.000000*%
%TD*%
%TA.AperFunction,ComponentPad*%
%ADD19C,2.200000*%
%TD*%
%TA.AperFunction,ComponentPad*%
%ADD20C,1.500000*%
%TD*%
%TA.AperFunction,ComponentPad*%
%ADD21R,3.200000X2.000000*%
%TD*%
%TA.AperFunction,ComponentPad*%
%ADD22C,1.600000*%
%TD*%
%TA.AperFunction,ViaPad*%
%ADD23C,0.900000*%
%TD*%
%TA.AperFunction,ViaPad*%
%ADD24C,0.600000*%
%TD*%
%TA.AperFunction,Conductor*%
%ADD25C,0.800000*%
%TD*%
%TA.AperFunction,Conductor*%
%ADD26C,0.500000*%
%TD*%
%TA.AperFunction,Conductor*%
%ADD27C,0.200000*%
%TD*%
G04 APERTURE END LIST*
D10*
%TO.P,U2,1,GND_1*%
%TO.N,GND*%
X109000000Y-156500000D03*
D11*
%TO.P,U2,2,VCC_2*%
%TO.N,+3V3*%
X109000000Y-153960000D03*
%TO.P,U2,3,SCL_3*%
%TO.N,/SCL*%
X109000000Y-151420000D03*
%TO.P,U2,4,SDA_4*%
%TO.N,/SDA*%
X109000000Y-148880000D03*
%TD*%
D12*
%TO.P,D1,1,K_1*%
%TO.N,GND*%
X109460000Y-121500000D03*
D13*
%TO.P,D1,2,A_2*%
%TO.N,Net-(D1-A)*%
X112000000Y-121500000D03*
%TD*%
D14*
%TO.P,U1,1,D0_1*%
%TO.N,/1*%
X67716000Y-120902500D03*
D15*
X68551000Y-120902500D03*
D14*
%TO.P,U1,2,D1_2*%
%TO.N,/2*%
X67716000Y-123442500D03*
D15*
X68551000Y-123442500D03*
D14*
%TO.P,U1,3,D2_3*%
%TO.N,/3*%
X67716000Y-125982500D03*
D15*
X68551000Y-125982500D03*
D14*
%TO.P,U1,4,D3_4*%
%TO.N,/4*%
X67716000Y-128522500D03*
D15*
X68551000Y-128522500D03*
D14*
%TO.P,U1,5,D4_5*%
%TO.N,/SDA*%
X67716000Y-131062500D03*
D15*
X68551000Y-131062500D03*
D14*
%TO.P,U1,6,D5_6*%
%TO.N,/SCL*%
X67716000Y-133602500D03*
D15*
X68551000Y-133602500D03*
D14*
%TO.P,U1,7,D6_7*%
%TO.N,Net-(U1-D6)*%
X67716000Y-136142500D03*
D15*
X68551000Y-136142500D03*
%TO.P,U1,8,D7_8*%
%TO.N,/DT*%
X83791000Y-136142500D03*
D16*
X84626000Y-136142500D03*
D15*
%TO.P,U1,9,D8_9*%
%TO.N,/CLK*%
X83791000Y-133602500D03*
D16*
X84626000Y-133602500D03*
D15*
%TO.P,U1,10,D9_10*%
%TO.N,Net-(BZ1-+)*%
X83791000Y-131062500D03*
D16*
X84626000Y-131062500D03*
D15*
%TO.P,U1,11,D10_11*%
%TO.N,/5*%
X83791000Y-128522500D03*
D16*
X84626000Y-128522500D03*
D15*
%TO.P,U1,12,3V3_OUT_12*%
%TO.N,+3V3*%
X83791000Y-125982500D03*
D16*
X84626000Y-125982500D03*
D15*
%TO.P,U1,13,GND_13*%
%TO.N,GND*%
X83791000Y-123442500D03*
D16*
X84626000Y-123442500D03*
D15*
%TO.P,U1,14,VBUS_14*%
%TO.N,unconnected-(U1-VBUS-Pad14)*%
X83791000Y-120902500D03*
D16*
X84626000Y-120902500D03*
%TD*%
D17*
%TO.P,BZ1,1,+_1*%
%TO.N,Net-(BZ1-+)*%
X94200000Y-125500000D03*
D18*
%TO.P,BZ1,2,-_2*%
%TO.N,GND*%
X101800000Y-125500000D03*
%TD*%
D19*
%TO.P,SW2,1,1_1*%
%TO.N,/4*%
X78120000Y-168920000D03*
%TO.P,SW2,2,2_2*%
%TO.N,GND*%
X71770000Y-171460000D03*
%TD*%
%TO.P,SW3,1,1_1*%
%TO.N,/5*%
X98960000Y-168920000D03*
%TO.P,SW3,2,2_2*%
%TO.N,GND*%
X92610000Y-171460000D03*
%TD*%
%TO.P,SW5,1,1_1*%
%TO.N,/2*%
X119460000Y-168920000D03*
%TO.P,SW5,2,2_2*%
%TO.N,GND*%
X113110000Y-171460000D03*
%TD*%
%TO.P,SW6,1,1_1*%
%TO.N,/1*%
X140460000Y-168920000D03*
%TO.P,SW6,2,2_2*%
%TO.N,GND*%
X134110000Y-171460000D03*
%TD*%
D20*
%TO.P,SW4,*%
%TO.N,*%
X104500000Y-150100000D03*
X104500000Y-155100000D03*
D17*
%TO.P,SW4,A,A_A*%
%TO.N,/CLK*%
X90000000Y-150100000D03*
D18*
%TO.P,SW4,B,B_B*%
%TO.N,GND*%
X90000000Y-155100000D03*
%TO.P,SW4,C,C_C*%
%TO.N,/DT*%
X90000000Y-152600000D03*
D21*
%TO.P,SW4,MP*%
%TO.N,N/C*%
X97500000Y-147000000D03*
X97500000Y-158200000D03*
%TD*%
D19*
%TO.P,SW1,1,1_1*%
%TO.N,/3*%
X77960000Y-147420000D03*
%TO.P,SW1,2,2_2*%
%TO.N,GND*%
X71610000Y-149960000D03*
%TD*%
D22*
%TO.P,R1,1*%
%TO.N,Net-(D1-A)*%
X114620000Y-130500000D03*
%TO.P,R1,2*%
%TO.N,Net-(U1-D6)*%
X107000000Y-130500000D03*
%TD*%
D15*
%TO.P,U3,1,VCC_1*%
%TO.N,+3V3*%
X119576000Y-128330000D03*
%TO.P,U3,2,GND_2*%
%TO.N,GND*%
X119576000Y-130870000D03*
%TO.P,U3,3,SCL_3*%
%TO.N,/SCL*%
X119576000Y-133410000D03*
%TO.P,U3,4,SDA_4*%
%TO.N,/SDA*%
X119576000Y-135950000D03*
%TO.P,U3,5,CSB_5*%
%TO.N,unconnected-(U3-CSB-Pad5)*%
X119576000Y-138490000D03*
%TO.P,U3,6,SDO_6*%
%TO.N,unconnected-(U3-SDO-Pad6)*%
X119576000Y-141030000D03*
%TD*%
D23*
%TO.N,+3V3*%
X89000000Y-126500000D03*
D24*
%TO.N,/SCL*%
X86500000Y-142500000D03*
X89000000Y-142500000D03*
X95500000Y-142500000D03*
%TO.N,/SDA*%
X95500000Y-141000000D03*
X89000000Y-141000000D03*
X86500000Y-141000000D03*
%TO.N,/4*%
X63000000Y-130000000D03*
%TO.N,Net-(U1-D6)*%
X86500000Y-139500000D03*
X90000000Y-139500000D03*
X82000000Y-139500000D03*
%TO.N,Net-(BZ1-+)*%
X87000000Y-127500000D03*
%TO.N,/5*%
X94000000Y-157500000D03*
%TD*%
%TO.N,GND*%
D25*
X109460000Y-121500000D02*
X118830000Y-130870000D01*
X118830000Y-130870000D02*
X119576000Y-130870000D01*
%TO.N,+3V3*%
D26*
X88482500Y-125982500D02*
X83791000Y-125982500D01*
X89000000Y-126500000D02*
X88482500Y-125982500D01*
%TO.N,/SCL*%
D27*
X109000000Y-151420000D02*
X100080000Y-142500000D01*
X100080000Y-142500000D02*
X95500000Y-142500000D01*
X89000000Y-142500000D02*
X86500000Y-142500000D01*
%TO.N,/SDA*%
X89000000Y-141000000D02*
X86500000Y-141000000D01*
X101120000Y-141000000D02*
X95500000Y-141000000D01*
X109000000Y-148880000D02*
X101120000Y-141000000D01*
%TO.N,/1*%
X95500000Y-132500000D02*
X95500000Y-122000000D01*
X92500000Y-119000000D02*
X70453500Y-119000000D01*
X95500000Y-122000000D02*
X92500000Y-119000000D01*
X131920000Y-168920000D02*
X95500000Y-132500000D01*
X70453500Y-119000000D02*
X68551000Y-120902500D01*
X140460000Y-168920000D02*
X131920000Y-168920000D01*
%TO.N,/2*%
X87000000Y-158500000D02*
X87000000Y-154500000D01*
X87000000Y-154500000D02*
X85500000Y-153000000D01*
X83000000Y-138500000D02*
X79500000Y-135000000D01*
X111040000Y-160500000D02*
X89000000Y-160500000D01*
X85500000Y-153000000D02*
X85500000Y-138500000D01*
X85500000Y-138500000D02*
X83000000Y-138500000D01*
X119460000Y-168920000D02*
X111040000Y-160500000D01*
X89000000Y-160500000D02*
X87000000Y-158500000D01*
X79500000Y-134391500D02*
X68551000Y-123442500D01*
X79500000Y-135000000D02*
X79500000Y-134391500D01*
%TO.N,/3*%
X77960000Y-143960000D02*
X74000000Y-140000000D01*
X74000000Y-140000000D02*
X64500000Y-140000000D01*
X64500000Y-140000000D02*
X64500000Y-128306700D01*
X64500000Y-128306700D02*
X66824200Y-125982500D01*
X66824200Y-125982500D02*
X68551000Y-125982500D01*
X77960000Y-147420000D02*
X77960000Y-143960000D01*
%TO.N,/4*%
X73080000Y-168920000D02*
X73000000Y-169000000D01*
X62000000Y-158000000D02*
X62000000Y-131000000D01*
X62000000Y-131000000D02*
X63000000Y-130000000D01*
X78120000Y-168920000D02*
X73080000Y-168920000D01*
X73000000Y-169000000D02*
X62000000Y-158000000D01*
%TO.N,Net-(U1-D6)*%
X69857500Y-136142500D02*
X68551000Y-136142500D01*
X70366300Y-135633700D02*
X69857500Y-136142500D01*
X78133700Y-135633700D02*
X70366300Y-135633700D01*
X82000000Y-139500000D02*
X78133700Y-135633700D01*
X90000000Y-139500000D02*
X86500000Y-139500000D01*
%TO.N,/DT*%
X93100000Y-136629928D02*
X92970072Y-136500000D01*
X86395014Y-136142500D02*
X83791000Y-136142500D01*
X88700000Y-148800000D02*
X93100000Y-144400000D01*
X88700000Y-151300000D02*
X88700000Y-148800000D01*
X93100000Y-144400000D02*
X93100000Y-136629928D01*
X90000000Y-152600000D02*
X88700000Y-151300000D01*
X92970072Y-136500000D02*
X86752514Y-136500000D01*
X86752514Y-136500000D02*
X86395014Y-136142500D01*
%TO.N,/CLK*%
X93500000Y-136204386D02*
X90898114Y-133602500D01*
X93500000Y-146600000D02*
X93500000Y-136204386D01*
X90000000Y-150100000D02*
X93500000Y-146600000D01*
X90898114Y-133602500D02*
X89897500Y-133602500D01*
X83791000Y-133602500D02*
X89897500Y-133602500D01*
%TO.N,Net-(BZ1-+)*%
X94200000Y-125500000D02*
X92200000Y-127500000D01*
X92200000Y-127500000D02*
X87000000Y-127500000D01*
%TO.N,/5*%
X86522500Y-128522500D02*
X84626000Y-128522500D01*
X94000000Y-136000000D02*
X86522500Y-128522500D01*
X94000000Y-157500000D02*
X94000000Y-136000000D01*
%TD*%
M02*
