%TF.GenerationSoftware,KiCad,Pcbnew,10.0.6*%
%TF.CreationDate,2026-09-10T22:44:13+08:00*%
%TF.ProjectId,Hackpad,4861636b-7061-4642-9e6b-696361645f70,rev?*%
%TF.SameCoordinates,Original*%
%TF.FileFunction,Soldermask,Bot*%
%TF.FilePolarity,Negative*%
%FSLAX46Y46*%
G04 Gerber Fmt 4.6, Leading zero omitted, Abs format (unit mm)*
G04 Created by KiCad (PCBNEW 10.0.6) date 2026-09-10 22:44:13*
%MOMM*%
%LPD*%
G01*
G04 APERTURE LIST*
G04 Aperture macros list*
%AMRoundRect*
0 Rectangle with rounded corners*
0 $1 Rounding radius*
0 $2 $3 $4 $5 $6 $7 $8 $9 X,Y pos of 4 corners*
0 Add a 4 corners polygon primitive as box body*
4,1,4,$2,$3,$4,$5,$6,$7,$8,$9,$2,$3,0*
0 Add four circle primitives for the rounded corners*
1,1,$1+$1,$2,$3*
1,1,$1+$1,$4,$5*
1,1,$1+$1,$6,$7*
1,1,$1+$1,$8,$9*
0 Add four rect primitives between the rounded corners*
20,1,$1+$1,$2,$3,$4,$5,0*
20,1,$1+$1,$4,$5,$6,$7,0*
20,1,$1+$1,$6,$7,$8,$9,0*
20,1,$1+$1,$8,$9,$2,$3,0*%
G04 Aperture macros list end*
%ADD10C,2.200000*%
%ADD11RoundRect,0.170000X0.680000X-0.680000X0.680000X0.680000X-0.680000X0.680000X-0.680000X-0.680000X0*%
%ADD12C,1.700000*%
%ADD13R,1.800000X1.800000*%
%ADD14C,1.800000*%
%ADD15C,1.524000*%
%ADD16R,2.000000X2.000000*%
%ADD17C,2.000000*%
%ADD18C,4.000000*%
%ADD19C,1.500000*%
%ADD20R,3.200000X2.000000*%
%ADD21C,1.600000*%
G04 APERTURE END LIST*
D10*
%TO.C,H2*%
X155000000Y-185500000D03*
%TD*%
D11*
%TO.C,U2*%
X109000000Y-156500000D03*
D12*
X109000000Y-153960000D03*
X109000000Y-151420000D03*
X109000000Y-148880000D03*
%TD*%
D13*
%TO.C,D1*%
X109460000Y-121500000D03*
D14*
X112000000Y-121500000D03*
%TD*%
D15*
%TO.C,U1*%
X68551000Y-120902500D03*
X68551000Y-123442500D03*
X68551000Y-125982500D03*
X68551000Y-128522500D03*
X68551000Y-131062500D03*
X68551000Y-133602500D03*
X68551000Y-136142500D03*
X83791000Y-136142500D03*
X83791000Y-133602500D03*
X83791000Y-131062500D03*
X83791000Y-128522500D03*
X83791000Y-125982500D03*
X83791000Y-123442500D03*
X83791000Y-120902500D03*
%TD*%
D16*
%TO.C,BZ1*%
X94200000Y-125500000D03*
D17*
X101800000Y-125500000D03*
%TD*%
D12*
%TO.C,SW2*%
X70500000Y-174000000D03*
D18*
X75580000Y-174000000D03*
D12*
X80660000Y-174000000D03*
D10*
X78120000Y-168920000D03*
X71770000Y-171460000D03*
%TD*%
%TO.C,H3*%
X61000000Y-185000000D03*
%TD*%
D12*
%TO.C,SW3*%
X91340000Y-174000000D03*
D18*
X96420000Y-174000000D03*
D12*
X101500000Y-174000000D03*
D10*
X98960000Y-168920000D03*
X92610000Y-171460000D03*
%TD*%
D12*
%TO.C,SW5*%
X111840000Y-174000000D03*
D18*
X116920000Y-174000000D03*
D12*
X122000000Y-174000000D03*
D10*
X119460000Y-168920000D03*
X113110000Y-171460000D03*
%TD*%
D12*
%TO.C,SW6*%
X132840000Y-174000000D03*
D18*
X137920000Y-174000000D03*
D12*
X143000000Y-174000000D03*
D10*
X140460000Y-168920000D03*
X134110000Y-171460000D03*
%TD*%
%TO.C,H4*%
X60000000Y-120000000D03*
%TD*%
%TO.C,H1*%
X155000000Y-120000000D03*
%TD*%
D19*
%TO.C,SW4*%
X104500000Y-150100000D03*
X104500000Y-155100000D03*
D16*
X90000000Y-150100000D03*
D17*
X90000000Y-155100000D03*
X90000000Y-152600000D03*
D20*
X97500000Y-147000000D03*
X97500000Y-158200000D03*
%TD*%
D12*
%TO.C,SW1*%
X70340000Y-152500000D03*
D18*
X75420000Y-152500000D03*
D12*
X80500000Y-152500000D03*
D10*
X77960000Y-147420000D03*
X71610000Y-149960000D03*
%TD*%
D21*
%TO.C,R1*%
X114620000Y-130500000D03*
X107000000Y-130500000D03*
%TD*%
D15*
%TO.C,U3*%
X119576000Y-128330000D03*
X119576000Y-130870000D03*
X119576000Y-133410000D03*
X119576000Y-135950000D03*
X119576000Y-138490000D03*
X119576000Y-141030000D03*
%TD*%
M02*
